<svg xmlns="http://www.w3.org/2000/svg" width="182.392" height="81.42" viewBox="0 0 182.392 81.42"><g transform="translate(-76.88 -83.401)"><path d="M257.076,124.119c0,21.27-39.853,38.506-88.994,38.506-49.163,0-89.006-17.236-89.006-38.506S118.92,85.6,168.082,85.6C217.223,85.6,257.076,102.847,257.076,124.119Z" transform="translate(0 0)" fill="#fff" stroke="#fff" stroke-width="4.392"/><path d="M257.076,124.119c0,21.27-39.853,38.506-88.994,38.506-49.163,0-89.006-17.236-89.006-38.506S118.92,85.6,168.082,85.6C217.223,85.6,257.076,102.847,257.076,124.119Z" transform="translate(0 0)" fill="#fff" stroke="#dc000c" stroke-width="1.1"/><g transform="translate(90.52 100.014)"><path d="M108.5,92.216s.216.013,1,0,.789.04,2.264.13a3.936,3.936,0,0,1,1.25.188,3.206,3.206,0,0,1,.835.246c.147.067.168.293.19.439a3.144,3.144,0,0,1-.319.895,11.661,11.661,0,0,1-.546,1.063c-.164.293-.625,1.123-1.014,1.86l-1.325,2.451c-.369.736-.872,1.706-1.086,2.129s-.557,1.075-.737,1.453a10.191,10.191,0,0,0-.627,1.379c-.135.381-.356.925-.372,1.018a1.835,1.835,0,0,0-.1.231c0,.046.068.1.1.128s.354-.064.354-.039.223-.109.645-.243a9.687,9.687,0,0,0,1.37-.633c.383-.17,1.394-.7,2.21-1.124l1.29-.686c.828-.433,2.192-1.148,3.051-1.574l1.008-.491c.848-.427,2.21-1.135,3.073-1.577l9.055-4.726c.83-.429,1.923-1,2.417-1.255a15.461,15.461,0,0,1,1.889-.768,3.5,3.5,0,0,1,1.486-.332c.9-.015,2.946-.009,3.235-.009a4.31,4.31,0,0,1,.71.054,1.368,1.368,0,0,1,.4.173.669.669,0,0,1,.19.281.651.651,0,0,1-.081.322,5.486,5.486,0,0,1-.767.537c-.363.213-1.342.734-2.181,1.176l-1.628.862c-.835.445-2.208,1.141-3.038,1.593l-4.822,2.509c-.852.433-2.229,1.146-3.055,1.583l-6.555,3.445c-.817.448-2.2,1.158-3.016,1.6l-.229.1c-.835.438-1.678.867-1.886.968a3.367,3.367,0,0,0-.675.4,1.021,1.021,0,0,0-.326.433,1.579,1.579,0,0,0,.076.5c.066.15.317.63.559,1.047s.87,1.325,1.366,2.023l.028.027c.5.686,1.307,1.818,1.812,2.527l1.4,2.014c.5.7,1.277,1.848,1.759,2.55l.968,1.42a14.321,14.321,0,0,0,1.628,1.982,13.551,13.551,0,0,0,1.718,1.289,12.476,12.476,0,0,0,2.059.926,11.128,11.128,0,0,0,2.3.439,8.869,8.869,0,0,0,1.462.015c.135-.042.28-.1.3-.156.028-.036.011-.118,0-.192-.039-.067-.442-.654-.907-1.292a14.666,14.666,0,0,1-1.226-1.933,13.137,13.137,0,0,1-.481-1.761,8.183,8.183,0,0,1-.265-1.961l-.022-.414a12.216,12.216,0,0,1,.216-2.388,11.89,11.89,0,0,1,.57-1.837,21.614,21.614,0,0,1,1.246-2.2,14.491,14.491,0,0,1,1.615-2.016,17.386,17.386,0,0,1,3.379-2.744,23.284,23.284,0,0,1,2.406-1.285c.87-.378,1.56-.7,2.118-.931,0,0,.957-.286,1.478-.436.719-.2,1.259-.3,1.259-.3.629-.06.8-.083,1.008-.113a5.906,5.906,0,0,1,.754-.04c.817-.054.175.013.857-.025l.767-.06c.138.021.5.024.8.04s1.36.019,2.356.019h15.439c1.006,0,2.643.015,3.639.025l3.832.07a11.069,11.069,0,0,1,2.75.353,5.668,5.668,0,0,1,1.331.593,3.205,3.205,0,0,1,.651.622,2.274,2.274,0,0,1,.363.944,3.442,3.442,0,0,1,.033,1.139,7.584,7.584,0,0,1-.535,1.62c-.223.584-.748,1.657-1.134,2.4l-.785,1.447c-.382.737-1.053,1.947-1.436,2.689l-.872,1.607c-.406.743-1.036,1.94-1.419,2.7l-.452.837a11.408,11.408,0,0,0-.763,1.679,1.858,1.858,0,0,0,.024.619,1.353,1.353,0,0,0,.352.457,1.949,1.949,0,0,0,.677.241,1.766,1.766,0,0,0,.887-.161,7.946,7.946,0,0,0,1.3-.971c.455-.4,1.32-1.246,1.9-1.891l2.037-2.229c.6-.655,1.508-1.735,2.026-2.422l4.03-5.293c.518-.679,1.242-1.593,1.587-2.012.371-.429,1.095-1.33,1.617-2.023l.721-.963a12.968,12.968,0,0,1,1.372-1.545,3.707,3.707,0,0,1,1.115-.479c.385-.086,1.152-.185,1.7-.237.54-.028,1.442-.031,1.967-.009a7.156,7.156,0,0,1,1.357.156,2.9,2.9,0,0,1,.68.2.815.815,0,0,1,.358.311.98.98,0,0,1,.039.427,4.332,4.332,0,0,1-.389.993c-.19.384-.688,1.24-1.123,1.9s-1.106,1.808-1.5,2.543l-4.288,7.775c-.411.746-.975,1.793-1.257,2.355a8.671,8.671,0,0,0-.7,1.566,4.541,4.541,0,0,0-.166,1.138,3,3,0,0,0,.238,1.074,2.432,2.432,0,0,0,.654.762,4.424,4.424,0,0,0,.994.456,7.7,7.7,0,0,0,1.2.214,4.267,4.267,0,0,0,1.237-.128c.328-.1,1.056-.334,1.585-.53a23.143,23.143,0,0,0,2.483-1.172,17.761,17.761,0,0,0,3.984-3.289,10.352,10.352,0,0,0,2.573-4.072c.181-.786.426-1.819.507-2.294a8.031,8.031,0,0,0,.083-1.751,5.268,5.268,0,0,0-.323-1.373,2.337,2.337,0,0,0-.6-.727,5.185,5.185,0,0,0-.776-.393,10.4,10.4,0,0,1-1.095-.548,6.011,6.011,0,0,1-.948-.661,3.544,3.544,0,0,1-.393-.621,3.726,3.726,0,0,1-.17-1.012,2.838,2.838,0,0,1,.354-1.263,3.424,3.424,0,0,1,.949-1.008,5.619,5.619,0,0,1,1.012-.546,4.208,4.208,0,0,1,.811-.152c.227-.028.647-.068.914-.109.262-.016.7-.054.99-.045s1.325.019,2.323.019h23.046c1,0,2.487.015,3.344.025.828.024,1.84.08,2.229.137a10.428,10.428,0,0,1,1.4.295,4.959,4.959,0,0,1,1.18.552c.3.176.649.442.826.564a1.563,1.563,0,0,1,.413.535c.076.158.2.3.271.3a3.069,3.069,0,0,0,.533-.591,8.109,8.109,0,0,1,.949-1.057,3.169,3.169,0,0,1,1.207-.588,12.518,12.518,0,0,1,1.689-.162c.575-.045,1.537-.048,2.116-.048s1.364.064,1.736.1a3.468,3.468,0,0,1,.842.2.643.643,0,0,1,.2.264,1.108,1.108,0,0,1-.022.482,3.455,3.455,0,0,1-.258.61c-.1.144-.52.868-.962,1.593l-.17.289c-.424.722-1.126,1.9-1.545,2.641l-5.241,9.109c-.43.721-.944,1.636-1.152,2.044a9.974,9.974,0,0,0-.573,1.59,4.322,4.322,0,0,0-.159,1.23,2.465,2.465,0,0,0,.234.7,1.907,1.907,0,0,0,.59.529,2.759,2.759,0,0,0,.977.3,2.708,2.708,0,0,0,1.281-.271c.378-.191.962-.533,1.307-.755a10.25,10.25,0,0,0,1.526-1.41,24.625,24.625,0,0,0,1.7-2.147,8.059,8.059,0,0,1,1.419-1.543,2.7,2.7,0,0,1,1.878-.561c.26,0,.68.018.94.036.262.039.571.092.71.13a1,1,0,0,1,.313.222.645.645,0,0,1,.129.409,1.912,1.912,0,0,1-.147.487,3.579,3.579,0,0,1-.505.637,15.951,15.951,0,0,1-1.746,1.367l-3.694,2.559a14.613,14.613,0,0,1-2.384,1.328,18.86,18.86,0,0,1-2.052.636,14.871,14.871,0,0,1-2.085.345,11.767,11.767,0,0,1-2.074,0,11.2,11.2,0,0,1-1.569-.24,9.07,9.07,0,0,1-1.012-.38,6.3,6.3,0,0,1-.826-.555,3.672,3.672,0,0,1-.621-.738,3.914,3.914,0,0,1-.418-1.079,6.83,6.83,0,0,1-.181-1.4,2.017,2.017,0,0,0-.068-.728.077.077,0,0,0-.061.064.066.066,0,0,1-.068.042c-.033,0-.7.395-1.477.9l-3.91,2.464a11.819,11.819,0,0,1-2.527,1.2,16.57,16.57,0,0,1-2.157.415,14.17,14.17,0,0,1-4.284-.1,12.511,12.511,0,0,1-2.006-.533,12.187,12.187,0,0,1-1.79-.835,7.617,7.617,0,0,1-2.736-2.629,7.648,7.648,0,0,1-.752-1.644,9.955,9.955,0,0,1-.289-1.751,16.278,16.278,0,0,1,.041-1.845,11.965,11.965,0,0,1,.337-1.818,12.667,12.667,0,0,1,1.03-2.214l.339-.637a12.1,12.1,0,0,1,2-2.4l3.585-3.186c.673-.591,1.548-1.377,1.958-1.736a4.214,4.214,0,0,0,.747-.755,7.74,7.74,0,0,0-1.8-.1h-9.228c-.979,0-1.716-.024-1.547.25a16.973,16.973,0,0,1,.651,1.818,8.288,8.288,0,0,1,.223,2.3,13.637,13.637,0,0,1-.575,2.679,30.279,30.279,0,0,1-2.356,5.2,25.694,25.694,0,0,1-5.327,5.609,24.375,24.375,0,0,1-2.077,1.34,33.169,33.169,0,0,1-3.06,1.551l-.382.168a19.557,19.557,0,0,1-2.621.989,20.41,20.41,0,0,1-2.111.433,18.332,18.332,0,0,1-2.138.15,11.5,11.5,0,0,1-2.009-.217,8.789,8.789,0,0,1-1.829-.636,7.065,7.065,0,0,1-1.495-1.135,5.419,5.419,0,0,1-.881-1.269,5.731,5.731,0,0,1-.313-1.225,10.639,10.639,0,0,1,.09-1.946c.1-.716.382-1.933.468-2.229a3.042,3.042,0,0,0,.208-.709,1.2,1.2,0,0,0,.061-.564.071.071,0,0,0-.061.055.064.064,0,0,1-.065.06c-.018,0-.536.526-1.134,1.163l-4.881,5.233a24.782,24.782,0,0,1-1.9,1.776,9.038,9.038,0,0,1-1.958,1.053,11.316,11.316,0,0,1-2.533.582,11.812,11.812,0,0,1-1.925.037,7.611,7.611,0,0,1-1.1-.331,6.813,6.813,0,0,1-.973-.572,6.146,6.146,0,0,1-.771-.713,3.333,3.333,0,0,1-.444-.8,4.623,4.623,0,0,1-.206-.865,6.435,6.435,0,0,1,.063-1.324,8.6,8.6,0,0,1,.361-1.685,20.384,20.384,0,0,1,.968-2.138l.16-.3c.385-.731,1.03-1.945,1.423-2.689l.85-1.52c.391-.75.931-1.761,1.2-2.244.254-.473.752-1.352,1.106-1.918a20.008,20.008,0,0,0,1.13-2.131,5.2,5.2,0,0,0,.437-1.481,1.694,1.694,0,0,0-.2-.709,1.984,1.984,0,0,0-.415-.488,2.71,2.71,0,0,0-.562-.286,10.851,10.851,0,0,0-1.119-.213,22.558,22.558,0,0,0-2.446-.113H158.2c-2.459,0-1.9.054-1.692.338.229.351.876,1.275,1.147,1.605.3.336.653.9.894,1.216a8.183,8.183,0,0,1,.45.73,4.433,4.433,0,0,1,.395.959,6.679,6.679,0,0,1,.258.925,7.223,7.223,0,0,1,.105.884,3.138,3.138,0,0,1,0,.622c-.057.395-.238,1.261-.389,1.9l-.288.945a17.05,17.05,0,0,1-.894,2.617,18.093,18.093,0,0,1-1.265,2.144c-.378.573-.916,1.094-1.687,2.052a3.791,3.791,0,0,1-.614.707,12.586,12.586,0,0,1-2.09,1.693,24,24,0,0,1-2.31,1.282,11.407,11.407,0,0,1-1.252.52,16.512,16.512,0,0,1-2.819.709c-.936.189-2.312.4-3.012.524a23.574,23.574,0,0,1-3.119.265l-11.448.176c-1.01.006-2.645.01-3.635.01h-1.491c-.984,0-2.584-.007-3.55-.039s-2.116-.113-2.551-.177a11.728,11.728,0,0,1-1.53-.386,8.776,8.776,0,0,1-1.3-.607,10.946,10.946,0,0,1-1.047-.8,11.753,11.753,0,0,1-1.115-1.437,22.41,22.41,0,0,1-1.182-2.026c-.277-.575-.831-1.665-1.239-2.4l-2.074-3.838c-.407-.746-1.018-1.833-1.407-2.442s-.818-1.275-.964-1.476a1.8,1.8,0,0,0-.33-.357c-.048,0-.225-.016-.227.022-.162.319-.411.707-.411.731-.254.447-.544.89-.754,1.266s-.693,1.257-1.1,2l-.022.039c-.413.743-1.071,1.94-1.482,2.67l-2.321,4.2c-.4.734-.909,1.7-1.137,2.135s-.763,1.085-1,1.538a3.5,3.5,0,0,1-.6,1.039,5.417,5.417,0,0,1-.87.128,20.989,20.989,0,0,1-2.175.177l-.365.022c-.994.036-2.326.054-2.966.036-.656-.019-1.32-.019-1.561-.036a5.052,5.052,0,0,0-.739,0c-.133,0-.54.009-.6-.124a1.1,1.1,0,0,1,.063-.819c.066-.122.354-.561.477-.825.131-.281.383-.719.535-.98.175-.259.673-1.062,1.108-1.8l1.5-2.458c.442-.713,1.134-1.907,1.543-2.637l.142-.246c.4-.737,1.089-1.934,1.526-2.658l3.552-5.96c.439-.736,1.152-1.839,1.547-2.469s1.082-1.764,1.51-2.5l.3-.514c.42-.731,1.069-1.778,1.392-2.3.365-.543,1-1.577,1.443-2.293l1.025-1.7c.453-.727.957-1.584,1.143-1.9a9.309,9.309,0,0,1,.789-1.126,5.155,5.155,0,0,1,.756-.835,1.788,1.788,0,0,1,.433-.295c.2-.064.49-.158.49-.158m120.8,11.779a3.409,3.409,0,0,0-1.235.179c-.5.189-1.246.6-1.862.884a22,22,0,0,0-2.138,1.383,27.443,27.443,0,0,0-2.184,1.671,21.138,21.138,0,0,0-1.987,2.122l-1.239,1.557c-.54.679-1.217,1.559-1.488,1.968a18.109,18.109,0,0,0-1.167,2.083l-.031.054a22.64,22.64,0,0,0-.99,2.369c-.166.557-.347,1.324-.415,1.7a8.643,8.643,0,0,0-.105,1.312,4.488,4.488,0,0,0,.245,1.2,4.405,4.405,0,0,0,.728,1.12,6.008,6.008,0,0,0,1.108.89,4.89,4.89,0,0,0,1.3.442,12.116,12.116,0,0,0,1.466.082,4.737,4.737,0,0,0,1.548-.326c.415-.182,2.164-1.178,1.764-.942-.885.514,2.345-1.741,3.244-2.506l2.293-2.205a11.324,11.324,0,0,0,1.749-2.437l2.293-4.121a18.4,18.4,0,0,0,1.132-2.556,15.723,15.723,0,0,0,.42-1.793,6.174,6.174,0,0,0-.035-1.133,5.114,5.114,0,0,0-.313-1.026,3.353,3.353,0,0,0-.675-.864,4.455,4.455,0,0,0-1.058-.645,9.225,9.225,0,0,0-1.512-.354,7.839,7.839,0,0,0-.861-.11m-82.172.311c-.129-.013-.772-.013-.772-.013a3.41,3.41,0,0,0-.905.124,1.93,1.93,0,0,0-.85.4,7.841,7.841,0,0,0-.935.689c-.643.53-1.394,1.267-1.858,1.73-.487.472-1.338,1.385-1.893,2.056a35.755,35.755,0,0,0-2.544,3.491,23.333,23.333,0,0,0-2.349,5.193,7.769,7.769,0,0,0-.544,2.553c-.068.913.015.96.015.96a4.965,4.965,0,0,0,.477,2,6.1,6.1,0,0,0,.734,1.005s-.044.066.417.369c.492.329.559.368.559.368a4.85,4.85,0,0,0,1.6.319,6.185,6.185,0,0,0,1.1-.022,4.433,4.433,0,0,0,1.484-.365,4.994,4.994,0,0,0,1.206-.6,5.667,5.667,0,0,0,.82-.561,22.326,22.326,0,0,0,2.125-1.979c.463-.506,1.178-1.339,1.6-1.846s1.1-1.383,1.484-1.952.785-1.151.885-1.321l.785-1.37a23.871,23.871,0,0,0,1.324-2.78c.288-.774.647-1.8.785-2.287a8.38,8.38,0,0,0,.356-1.825,3.073,3.073,0,0,0-.09-1c-.265-1.059-.251-1.066-.251-1.066a8.65,8.65,0,0,0-.734-1.05,5.026,5.026,0,0,0-.78-.6,4.583,4.583,0,0,0-1.124-.411,8.746,8.746,0,0,0-1.416-.18c-.42-.015-.75-.019-.75-.019" transform="translate(-86.762 -92.213)" fill="#dc000c"/></g></g></svg>